# xmcd
#
# Track frame offsets:
#	150
#	15601
#	28831
#	43317
#	57307
#	74303
#	88297
#	104738
#	119395
#	130341
#	147233
#	162959
#	178900
#	194934
#
# Disc length: 2781
#
# Revision: 2
# Processed by: cddbd v1.5.1PL0 Copyright (c) Steve Scherf et al.
# Submitted via: audiograbber 1.83.01
# Normalized: r1:DSETVAR1
#
DISCID=e00adb0e
DTITLE=Various Artist - Goldene Volksmusikparade 2004_1
DYEAR=2004
DGENRE=Volksmusik
TTITLE0=Nockalm Quintett - Die kleine Insel Zärtlichkeit
TTITLE1=Zellberg Buam - Mander es isch Zeit
TTITLE2=Petra Frey - Hey Amigo tanz mit mir
TTITLE3=Alpentrio Tirol - In den Bergen von Tirol
TTITLE4=Stefanie Hertel - Ich glaube daran
TTITLE5=Stefan Mross - Ich schenk dir mein' Herzschlag
TTITLE6=Oswald Sattler and Jantje Smit - Wenn der Traum von Liebe erwacht
TTITLE7=Monika Martin - Wir schaffen das
TTITLE8=Marc Pircher - Hey Diandl spürst es so wie i
TTITLE9=Kostertaler - Die kleine Kneipe
TTITLE10=Mara Kayser - Hinter irgendeinem Fenster
TTITLE11=Jantje Smit and Choir "The Jody Puper Singers" - Sehnsucht nach Sonne
TTITLE12=Karel Gott - Jede Nacht
TTITLE13=Vincent and Fernando - Für immer und ewig Ti Amo
EXTD=
EXTT0=
EXTT1=
EXTT2=
EXTT3=
EXTT4=
EXTT5=
EXTT6=
EXTT7=
EXTT8=
EXTT9=
EXTT10=
EXTT11=
EXTT12=
EXTT13=
PLAYORDER=
